Coordinates
version=1
nRows=29
nColumns=22
inDegrees=yes

Units are S.I. units (second, meters, Newtons, ...)
If the header above contains a line with 'inDegrees', this indicates whether rotational values are in degrees (yes) or radians (no).

endheader
time	pelvis_tilt	pelvis_list	pelvis_rotation	pelvis_tx	pelvis_ty	pelvis_tz	hip_flexion_r	hip_adduction_r	hip_rotation_r	knee_angle_r	ankle_angle_r	subtalar_angle_r	hip_flexion_l	hip_adduction_l	hip_rotation_l	knee_angle_l	ankle_angle_l	subtalar_angle_l	lumbar_extension	lumbar_bending	lumbar_rotation
      1.52000000	     -4.63466301	     -4.07310130	     -2.24851682	     -1.71719169	      1.00660239	     -0.03969581	      4.91555921	      4.60277594	     -6.04821303	    -15.34879821	     11.69710670	      0.00411588	      5.98250717	    -11.67760561	    -10.78180267	    -18.46101135	     11.49465264	      5.99584458	     -1.36620889	      3.77869196	     -2.82123242
      1.53000000	     -4.60203191	     -4.16242563	     -2.22458926	     -1.71699290	      1.00635736	     -0.03743051	      4.88635910	      4.83501364	     -6.01788598	    -15.41792408	     11.77663930	     -0.08797106	      6.78459860	    -12.04272665	    -10.51779850	    -20.01356011	     11.46915682	      6.18420490	     -1.52629487	      3.87328195	     -2.73341824
      1.54000000	     -4.54861897	     -4.25060497	     -2.19808403	     -1.71683436	      1.00613933	     -0.03515333	      4.83767425	      5.06616331	     -5.99500276	    -15.48631073	     11.85220348	     -0.17481947	      7.65975027	    -12.41052390	    -10.21302932	    -21.72147473	     11.36047774	      6.34438305	     -1.73191777	      3.95998145	     -2.62931859
      1.55000000	     -4.48344829	     -4.32779248	     -2.16231292	     -1.71666716	      1.00594711	     -0.03289878	      4.77139107	      5.28384576	     -5.98130013	    -15.54494641	     11.93397407	     -0.26840576	      8.61829696	    -12.76935427	     -9.88543398	    -23.58199531	     11.12538582	      6.48901526	     -1.95975837	      4.03268870	     -2.50707868
      1.56000000	     -4.39973538	     -4.39272279	     -2.11939873	     -1.71647043	      1.00579851	     -0.03068394	      4.67999431	      5.48695418	     -5.97001783	    -15.59580609	     12.01570568	     -0.36986709	      9.64340047	    -13.11105434	     -9.53335348	    -25.57481112	     10.76341568	      6.60216352	     -2.21579125	      4.09078425	     -2.36015140
      1.57000000	     -4.28077346	     -4.45749959	     -2.06687339	     -1.71623698	      1.00572879	     -0.02850264	      4.53650618	      5.69061354	     -5.94602701	    -15.62035854	     12.07920376	     -0.46186817	     10.70509343	    -13.44226261	     -9.14341617	    -27.67142647	     10.28953841	      6.65621458	     -2.52386702	      4.14390855	     -2.19703057
      1.58000000	     -4.14285607	     -4.50720727	     -2.00664933	     -1.71595206	      1.00571090	     -0.02638360	      4.36966911	      5.87644107	     -5.91560079	    -15.64298015	     12.14590700	     -0.56345778	     11.80944875	    -13.74089195	     -8.72712918	    -29.84482900	      9.70785618	      6.66621431	     -2.85840809	      4.17920070	     -2.01024307
      1.59000000	     -3.98303430	     -4.54796471	     -1.93612471	     -1.71558410	      1.00575526	     -0.02433533	      4.16608445	      6.05133809	     -5.87555784	    -15.64734329	     12.20565241	     -0.66584873	     12.93416541	    -14.00592939	     -8.28598670	    -32.05291029	      9.05502301	      6.62984695	     -3.21866562	      4.20442098	     -1.80632101
      1.60000000	     -3.81124736	     -4.57405679	     -1.86081914	     -1.71515290	      1.00584108	     -0.02236629	      3.94559358	      6.20770731	     -5.83302356	    -15.64871419	     12.26773805	     -0.77296520	     14.07440406	    -14.22330766	     -7.82624525	    -34.25803991	      8.38460417	      6.55195504	     -3.59564263	      4.21236574	     -1.58100722
      1.61000000	     -3.63930362	     -4.58170040	     -1.78233139	     -1.71463608	      1.00594746	     -0.02048786	      3.71563429	      6.33958463	     -5.79700235	    -15.63997019	     12.34276120	     -0.88556962	     15.22275989	    -14.38268773	     -7.36149108	    -36.41558107	      7.75042137	      6.43869059	     -3.97000540	      4.20089935	     -1.32675657
      1.62000000	     -3.46430902	     -4.57191414	     -1.69997683	     -1.71404515	      1.00608739	     -0.01868871	      3.46859549	      6.44898293	     -5.77028715	    -15.60906452	     12.39389212	     -0.97710096	     16.36063168	    -14.48260561	     -6.91331962	    -38.48058258	      7.19511839	      6.31720311	     -4.34900600	      4.16877532	     -1.09192722
      1.63000000	     -3.31061309	     -4.53411462	     -1.61217301	     -1.71333761	      1.00621130	     -0.01701650	      3.23421337	      6.51881877	     -5.77050465	    -15.57147318	     12.46587803	     -1.06461729	     17.49549758	    -14.50285074	     -6.48935599	    -40.41045656	      6.76695552	      6.18997994	     -4.68996726	      4.11147241	     -0.83635446
      1.64000000	     -3.18258522	     -4.46502976	     -1.52503253	     -1.71252991	      1.00632333	     -0.01544171	      3.01677606	      6.54713025	     -5.80131844	    -15.52217997	     12.54447903	     -1.13780851	     18.61508133	    -14.43886335	     -6.10442680	    -42.16174923	      6.48539084	      6.07298261	     -4.99435039	      4.02031934	     -0.58443334
      1.65000000	     -3.08153885	     -4.36133391	     -1.43679083	     -1.71160065	      1.00642542	     -0.01398197	      2.81632538	      6.52881578	     -5.85976398	    -15.46234292	     12.63505348	     -1.19154111	     19.70775828	    -14.28760874	     -5.77830261	    -43.70000194	      6.34049151	      5.97953269	     -5.25543294	      3.89435610	     -0.34589038
      1.66000000	     -3.01257188	     -4.22377130	     -1.34326113	     -1.71052961	      1.00651386	     -0.01264391	      2.63824628	      6.46439570	     -5.94521620	    -15.39515627	     12.72732323	     -1.22186854	     20.77076984	    -14.05146226	     -5.51999766	    -45.00160387	      6.31761916	      5.91527533	     -5.46267438	      3.73618861	     -0.11981820
      1.67000000	     -2.97347125	     -4.05712426	     -1.24874781	     -1.70931422	      1.00659451	     -0.01140017	      2.47802497	      6.36116772	     -6.04766426	    -15.31691189	     12.82321701	     -1.22680799	     21.79368025	    -13.74561700	     -5.34692298	    -46.04909204	      6.38210168	      5.88573631	     -5.62159763	      3.54734494	      0.09042240
      1.68000000	     -2.96445509	     -3.87106813	     -1.15204521	     -1.70793435	      1.00666219	     -0.01023844	      2.33610792	      6.23051055	     -6.16403698	    -15.23108423	     12.90980272	     -1.20348049	     22.77486880	    -13.39100306	     -5.26886874	    -46.83926039	      6.49998406	      5.89105718	     -5.72721305	      3.33816100	      0.29075209
      1.69000000	     -2.97883356	     -3.67694366	     -1.05223486	     -1.70638998	      1.00671978	     -0.00913615	      2.20152324	      6.08759001	     -6.28070205	    -15.13096520	     12.99333135	     -1.15156067	     23.70741353	    -13.01048539	     -5.28875692	    -47.37330921	      6.63803691	      5.92779275	     -5.79014235	      3.11910913	      0.47808585
      1.70000000	     -3.00869262	     -3.48326298	     -0.94828389	     -1.70466582	      1.00677101	     -0.00808396	      2.06415007	      5.94189413	     -6.39297642	    -15.01587885	     13.07253224	     -1.07207399	     24.58211796	    -12.62215538	     -5.40541485	    -47.65679333	      6.77588702	      5.98700883	     -5.81866053	      2.89863045	      0.65441362
      1.71000000	     -3.03458116	     -3.29719537	     -0.83874578	     -1.70275719	      1.00683690	     -0.00706393	      1.89257828	      5.80722513	     -6.46239915	    -14.86587832	     13.11298115	     -0.98531632	     25.37687334	    -12.23986023	     -5.61310945	    -47.69532591	      6.92534732	      6.03935293	     -5.83629665	      2.68574205	      0.79853499
      1.72000000	     -3.08372508	     -3.12062705	     -0.72901555	     -1.70069773	      1.00684961	     -0.00606172	      1.74588574	      5.67849378	     -6.55417468	    -14.73609473	     13.18359624	     -0.86188524	     26.12861070	    -11.87130205	     -5.89912535	    -47.50744809	      7.02078156	      6.11618091	     -5.81831975	      2.47483026	      0.95987709
      1.73000000	     -3.13532950	     -2.96710465	     -0.63094116	     -1.69848331	      1.00682800	     -0.00505310	      1.59641911	      5.57191596	     -6.64595974	    -14.61707668	     13.29942200	     -0.66812567	     26.81123464	    -11.53801633	     -6.25789319	    -47.10215707	      7.07165725	      6.21698723	     -5.79134632	      2.28360628	      1.14621532
      1.74000000	     -3.17096416	     -2.82981890	     -0.54112970	     -1.69608440	      1.00680392	     -0.00404969	      1.40420387	      5.48524544	     -6.69964341	    -14.46964889	     13.36755872	     -0.48555082	     27.39674164	    -11.22627397	     -6.67298973	    -46.48053806	      7.13561435	      6.27937888	     -5.77623825	      2.10717896	      1.32780472
      1.75000000	     -3.19618364	     -2.70755709	     -0.47077580	     -1.69352244	      1.00675000	     -0.00302364	      1.19031882	      5.41490858	     -6.74289534	    -14.32223233	     13.44999229	     -0.28645552	     27.89351450	    -10.93908904	     -7.13641359	    -45.65592665	      7.17983341	      6.31924686	     -5.77054383	      1.93955767	      1.52598756
      1.76000000	     -3.21199560	     -2.59925124	     -0.41608035	     -1.69079036	      1.00665373	     -0.00199485	      0.95533555	      5.35864935	     -6.77899317	    -14.17388803	     13.54065045	     -0.07393511	     28.30703009	    -10.66880118	     -7.62701549	    -44.64619613	      7.21070824	      6.33427671	     -5.77439300	      1.78237087	      1.74116851
      1.77000000	     -3.22545074	     -2.50952371	     -0.37342143	     -1.68790726	      1.00649364	     -0.00097412	      0.71094680	      5.32128878	     -6.81572995	    -14.03028132	     13.64073320	      0.13809904	     28.65301980	    -10.41147002	     -8.11566292	    -43.46753272	      7.22584322	      6.33203524	     -5.78066616	      1.63989530	      1.96854972
      1.78000000	     -3.23204519	     -2.43569904	     -0.33834376	     -1.68488587	      1.00626239	      0.00000556	      0.45346524	      5.29696627	     -6.85582942	    -13.89229206	     13.76554684	      0.36992659	     28.93711674	    -10.15786375	     -8.58250896	    -42.14625006	      7.21955400	      6.31976167	     -5.79825131	      1.51420085	      2.20092629
      1.79000000	     -3.24286720	     -2.38238487	     -0.30403271	     -1.68173176	      1.00593503	      0.00093507	      0.19737796	      5.29094377	     -6.90380960	    -13.76469188	     13.90215103	      0.59726761	     29.18150451	     -9.90596135	     -8.99765499	    -40.70449630	      7.19373482	      6.31285016	     -5.81257852	      1.40894665	      2.43242193
      1.80000000	     -3.25352596	     -2.34828403	     -0.26882257	     -1.67844506	      1.00551638	      0.00180381	     -0.06432530	      5.30180613	     -6.95929085	    -13.64267801	     14.05866036	      0.82305665	     29.38785384	     -9.65319043	     -9.35044108	    -39.16339082	      7.14528817	      6.31880672	     -5.82864666	      1.32259608	      2.65757866
